<svg id="orderIt" width="651" height="585" viewBox="0 0 651 585" fill="none" xmlns="http://www.w3.org/2000/svg">
            <g>
                <path id="head" d="M343.578 584.533C194.893 580.711 56.9129 475.995 48.8185 321.411C46.4487 276.155 56.2379 234.061 74.9746 196.804L0.804199 81.6822L48.8185 29.1868L159.929 97.3387C211.934 58.7168 276.983 35.5354 343.578 33.7916C400.653 32.2971 457.081 47.1942 505.699 74.5223L583.375 0.636658L640.749 45.7643L595.383 150.755C632.344 197.881 653.829 256.495 650.458 321.411C642.181 480.858 496.936 588.474 343.578 584.533Z" fill="white"/>
                <path id="face" d="M142.033 316.53C136.164 204.173 238.121 123.193 345.933 120.363C456.833 117.452 566.411 200.951 560.425 316.53C554.698 427.09 452.018 493.327 345.933 490.594C243.08 487.944 147.633 423.718 142.033 316.53Z" fill="#191919"/>
                <g id="eyes">
                <path id="right-eye" d="M282.38 277.849C282.198 261.875 287.381 243.453 302.681 242.852C318.35 242.237 323.176 261.491 322.983 277.849C322.794 293.908 318.063 312.536 302.681 311.925C287.675 311.329 282.558 293.517 282.38 277.849Z" fill="#00FFFD"/>
                <path id="left-eye" d="M376.832 277.849C376.65 261.875 381.833 243.453 397.133 242.852C412.802 242.237 417.628 261.491 417.435 277.849C417.245 293.908 412.515 312.536 397.133 311.925C382.126 311.329 377.01 293.517 376.832 277.849Z" fill="#00FFFD"/>
                </g>
            </g>
        </svg>